<?xml version="1.0" standalone="no"?>
<!DOCTYPE svg PUBLIC "-//W3C//DTD SVG 20010904//EN"
 "http://www.w3.org/TR/2001/REC-SVG-20010904/DTD/svg10.dtd">
<svg version="1.0" xmlns="http://www.w3.org/2000/svg"
 width="310.000000pt" height="310.000000pt" viewBox="0 0 310.000000 310.000000"
 preserveAspectRatio="xMidYMid meet">
<metadata>
Created by potrace 1.15, written by Peter Selinger 2001-2017
</metadata>
 <defs>  
        <linearGradient id="logo-gradient" x1="50%" y1="0%" x2="50%" y2="100%" > 
            
            <stop offset="0%" stop-color="#7A5FFF">
                <animate attributeName="stop-color" values="#7A5FFF; #01FF89; #7A5FFF" dur="4s" repeatCount="indefinite"></animate>
            </stop>

            <stop offset="100%" stop-color="#01FF89">
                <animate attributeName="stop-color" values="#01FF89; #7A5FFF; #01FF89" dur="4s" repeatCount="indefinite"></animate>
            </stop>

        </linearGradient> 

    </defs>
  
<g transform="translate(0.000000,310.000000) scale(0.100000,-0.100000)"
fill="#000000" stroke="none">
<path d="M1291 2910 c-283 -58 -510 -179 -712 -380 -192 -190 -319 -420 -380
-690 -29 -129 -36 -357 -14 -495 121 -771 847 -1290 1607 -1149 569 105 1016
558 1113 1128 19 113 21 313 5 426 -68 479 -384 886 -832 1076 -175 73 -289
96 -508 100 -153 3 -201 0 -279 -16z m484 -86 c245 -40 489 -168 675 -354 192
-191 306 -399 361 -663 25 -114 34 -406 13 -427 -7 -7 -177 -9 -540 -8 l-529
3 1 75 c1 55 7 88 24 123 46 98 108 136 307 188 240 63 322 108 368 203 18 36
29 79 33 121 l5 66 -389 -3 c-385 -3 -389 -3 -432 -26 -24 -13 -63 -41 -86
-62 l-43 -39 -38 39 c-21 21 -61 49 -89 62 -50 23 -59 23 -428 26 l-378 3 0
-54 c0 -96 39 -174 112 -228 50 -35 118 -61 277 -105 158 -44 233 -77 275
-124 42 -47 73 -128 77 -205 l4 -60 -542 -3 -543 -2 -6 25 c-3 14 -4 103 -2
198 4 142 10 189 31 268 80 302 240 544 476 722 293 221 631 302 1006 241z
m-384 -781 c28 -15 65 -47 99 -89 l55 -65 65 70 c103 110 83 106 454 109 189
2 323 -1 328 -6 15 -15 -29 -89 -71 -120 -49 -36 -91 -51 -261 -97 -220 -60
-295 -107 -355 -224 -50 -99 -51 -258 -4 -402 21 -64 86 -198 136 -278 l27
-44 -49 8 c-85 12 -155 45 -201 91 -53 55 -91 59 -117 14 -10 -16 -37 -41 -60
-54 -44 -26 -155 -61 -163 -53 -3 3 7 24 21 48 55 86 105 203 126 295 49 213
-6 416 -136 502 -53 35 -136 66 -319 118 -80 23 -147 49 -175 68 -49 33 -91
87 -91 118 0 18 11 19 323 16 310 -3 324 -4 368 -25z m1292 -761 l127 -2 -6
-27 c-14 -58 -63 -195 -94 -262 -31 -67 -34 -69 -74 -75 -22 -3 -79 -7 -126
-8 -115 -2 -177 19 -243 83 -28 27 -60 49 -71 49 -12 0 -38 -18 -60 -41 -35
-38 -128 -89 -161 -89 -15 0 -88 106 -130 190 -32 63 -76 176 -70 181 3 4 679
5 908 1z m-1348 -34 c-22 -109 -153 -338 -192 -338 -48 0 -136 43 -178 86 -52
55 -82 58 -119 10 -31 -41 -136 -96 -186 -98 -32 0 -153 15 -223 28 -21 4 -34
18 -52 55 -35 67 -59 131 -83 217 l-20 72 530 0 530 0 -7 -32z m-375 -360 c59
-40 182 -78 254 -78 113 0 238 39 303 94 l33 27 33 -25 c56 -43 141 -76 226
-88 129 -19 275 16 359 87 l31 26 45 -35 c68 -52 163 -80 272 -80 l92 -1 -18
-25 c-33 -46 -134 -156 -186 -202 -163 -144 -342 -236 -569 -294 -98 -24 -128
-28 -280 -28 -183 -1 -268 11 -418 60 -97 32 -247 108 -335 170 -106 75 -268
239 -314 319 -4 6 29 9 93 7 74 -3 112 0 151 13 59 20 130 58 149 81 14 17 9
19 79 -28z"/>
</g>
</svg>
